<?xml version="1.0" encoding="UTF-8"?>
<svg id="Layer_1" data-name="Layer 1" xmlns="http://www.w3.org/2000/svg" viewBox="0 0 1889.85 497.94">
  <defs>
    <style>
      .cls-1 {
        letter-spacing: 0em;
      }

      .cls-2 {
        fill: #dfc38c;
      }

      .cls-2, .cls-3, .cls-4, .cls-5 {
        stroke: #fff;
        stroke-miterlimit: 10;
        stroke-width: 2px;
      }

      .cls-3, .cls-6 {
        fill: #1b234f;
      }

      .cls-7 {
        letter-spacing: -.06em;
      }

      .cls-4 {
        fill: #3a517d;
      }

      .cls-5 {
        fill: #d8cac1;
      }

      .cls-8 {
        letter-spacing: -.03em;
      }

      .cls-9 {
        fill: #1a244f;
        font-family: Calibri, Calibri;
        font-size: 58.63px;
      }
    </style>
  </defs>
  <g>
    <path class="cls-5" d="M429.91,290.84v56.58c-3.47,1.74-6.73,3.53-9.92,5.75-6.32,4.39-12.31,9.25-18.7,13.63-27.79,19.06-56.14,37.34-84.04,56.23l-1.34.39c-.31-.05-.4-1.09-.41-1.37-1.21-17.85,3.65-44.58-4.92-60.24-8.95-16.35-29.92-20.86-45.24-10.33-9.93,6.83-13.12,19.28-13.76,30.76l-.04,84.53-43.6,29.77-.37-.62v-123.37c1.73-35.26,19.15-66.61,55.65-74.16,10.68-2.21,20.04-1.51,30.77-.56,20.95,1.86,38.13,14.03,48.98,31.6,2.95,4.78,5.27,9.87,7.75,14.9,4.96-3.19,9.71-6.7,14.6-10,19.55-13.19,39.39-26.26,58.7-39.78,1.87-1.31,3.57-3.6,5.89-3.68Z"/>
    <path class="cls-2" d="M341.73,68.65l67.67,100.95,8.56,12.58c-1.54.84-3.28.14-4.84.12-11.15-.18-22.81-.28-33.85,0-22.74.57-40.24,10.06-38.67,35.46,1.05,17.06,13.48,26.28,29.51,28.44,30,1.18,60.19.22,90.27.51l1,.25,29.45,43.79c-20.02.03-40.05-.02-60.08-.02-22.13,0-44.87.45-67.1-.51-23.98-2.17-47.32-11.03-61.09-31.67-14.13-21.17-14.94-55.23-3.27-77.65,8.21-15.77,22.75-26.95,39.31-32.94l.05-.58-53.49-78.72h56.58Z"/>
    <path class="cls-3" d="M62.97,150.98l100.95-67.67,12.58-8.56c.84,1.54.14,3.28.12,4.84-.18,11.15-.28,22.81,0,33.85.57,22.74,10.06,40.24,35.46,38.67,17.06-1.05,26.28-13.48,28.44-29.51,1.18-30,.22-60.19.51-90.27l.25-1L285.06,1.88c.03,20.02-.02,40.05-.02,60.08,0,22.13.45,44.87-.51,67.1-2.17,23.98-11.03,47.32-31.67,61.09-21.17,14.13-55.23,14.94-77.65,3.27-15.77-8.21-26.95-22.75-32.94-39.31l-.58-.05-78.72,53.49v-56.58Z"/>
    <path class="cls-4" d="M150.98,429.74l-67.67-100.95-8.56-12.58c1.54-.84,3.28-.14,4.84-.12,11.15.18,22.81.28,33.85,0,22.74-.57,40.24-10.06,38.67-35.46-1.05-17.06-13.48-26.28-29.51-28.44-30-1.18-60.19-.22-90.27-.51l-1-.25L1.88,207.65c20.02-.03,40.05.02,60.08.02,22.13,0,44.87-.45,67.1.51,23.98,2.17,47.32,11.03,61.09,31.67,14.13,21.17,14.94,55.23,3.27,77.65-8.21,15.77-22.75,26.95-39.31,32.94l-.05.58,53.49,78.72h-56.58Z"/>
  </g>
  <path class="cls-6" d="M629.97,349.8l-27.43-50.45c-.74-1.36-2.38-1.92-3.8-1.33-12.75,5.28-26.63,7.87-40.54,8.05l-2.99,3.01v39.29c0,1.66-1.35,3.01-3.01,3.01h-14.08c-1.66,0-3.01-1.35-3.01-3.01V98.67c0-1.66,1.35-3.01,3.01-3.01h18.55c48.22,0,97.17,28.13,97.17,105.21,0,40-13.38,66.62-32.82,83.19-1.09.92-1.38,2.48-.7,3.73l32.2,59.14c1.09,2-.36,4.44-2.64,4.44h-17.26c-1.1,0-2.11-.6-2.64-1.57ZM560.32,302.42c32.88,0,71.6-28.86,71.6-101.55s-38.72-101.92-71.6-101.92h-2.11c-1.66,0-3.01,1.35-3.01,3.01v197.46c0,1.66,1.35,3.01,3.01,3.01h2.11Z"/>
  <path class="cls-6" d="M720.14,98.68v249.68c0,1.66-1.35,3.01-3.01,3.01h-13.7c-1.66,0-3.01-1.35-3.01-3.01V98.68c0-1.66,1.35-3.01,3.01-3.01h13.7c1.66,0,3.01,1.35,3.01,3.01Z"/>
  <path class="cls-6" d="M894.2,351.37c23.91,0,48.17-5.76,68.52-17.59,1.04-.61,2.35.14,2.35,1.34h0c0,.56-.3,1.08-.79,1.36-19.57,11.05-43.05,17.45-70.08,17.45-81.83,0-131.87-58.08-131.87-130.41s50.05-130.41,131.87-130.41c27.03,0,50.51,6.4,70.08,17.45.49.28.79.8.79,1.36h0c0,1.2-1.3,1.95-2.35,1.34-20.35-11.84-44.61-17.59-68.52-17.59-67.21,0-108.86,57.35-108.86,127.85s41.64,127.85,108.86,127.85ZM1083.79,97.22v252.59c0,.86-.7,1.56-1.56,1.56h-16.98c-.86,0-1.56-.7-1.56-1.56v-122.91c0-.86-.7-1.56-1.56-1.56h-133.87c-.86,0-1.56.7-1.56,1.56v82.36c0,.86-.7,1.56-1.56,1.56h-16.98c-.86,0-1.56-.7-1.56-1.56v-163.82c0-.86.7-1.56,1.56-1.56h16.98c.86,0,1.56.7,1.56,1.56v74.69c0,.86.7,1.56,1.56,1.56h133.87c.86,0,1.56-.7,1.56-1.56v-122.91c0-.86.7-1.56,1.56-1.56h16.98c.86,0,1.56.7,1.56,1.56Z"/>
  <path class="cls-6" d="M1433.42,351.37c.61,0,1.1-.49,1.1-1.1V97.56c0-1.11-.89-2.02-2.01-2.02h-15.69c-1.11,0-2.02.9-2.02,2.02v202.44c0,2.15-2.91,2.81-3.84.87l-97.9-204.19c-.34-.7-1.04-1.15-1.82-1.15h0c-1.11,0-2.02.9-2.02,2.02v251.67c0,1.11.9,2.02,2.02,2.02h15.69c1.11,0,2.02-.9,2.02-2.02v-199.04c0-2.15,3.05-2.45,3.98-.51l96.2,201.1c.17.36.53.59.93.59h3.36Z"/>
  <path class="cls-6" d="M1502.34,223.52c0,70.5,42.01,127.85,108.86,127.85,24.37,0,48.4-5.81,69.11-17.75.94-.54,2.12.14,2.12,1.23v.35c0,.51-.27.98-.72,1.23-19.58,11.07-43.09,17.49-70.52,17.49-81.83,0-131.87-58.45-131.87-130.41s50.05-130.41,131.87-130.41c27.43,0,50.95,6.06,70.53,17.49.44.25.7.72.7,1.23h0c0,1.09-1.18,1.77-2.12,1.22-20.72-11.92-44.74-17.38-69.11-17.38-66.85,0-108.86,56.99-108.86,127.85Z"/>
  <path class="cls-6" d="M1856.81,349.55h0c0,1.01-1.15,1.83-2.56,1.83h-123.59c-1.42,0-2.56-.82-2.56-1.83V97.49c0-1.01,1.15-1.83,2.56-1.83h22.57c1.42,0,2.56.82,2.56,1.83v248.4c0,1.01,1.15,1.83,2.56,1.83h95.9c1.42,0,2.56.82,2.56,1.83ZM1889.85,327.32h0c0,1.01-.82,1.83-1.83,1.83h-101.55c-1.01,0-1.83-.82-1.83-1.83V115.81c0-1.01.82-1.83,1.83-1.83h94.61c1.01,0,1.83.82,1.83,1.83h0c0,1.01-.82,1.83-1.83,1.83h-74.89c-1.01,0-1.83.82-1.83,1.83v98.27c0,1.01.82,1.83,1.83,1.83h67.58c1.01,0,1.83.82,1.83,1.83h0c0,1.01-.82,1.83-1.83,1.83h-67.58c-1.01,0-1.83.82-1.83,1.83v98.63c0,1.01.82,1.83,1.83,1.83h81.83c1.01,0,1.83.82,1.83,1.83Z"/>
  <path class="cls-6" d="M1259.72,93.11c1.56,0,2.83,1.27,2.83,2.83v206.85c0,36.53-25.21,48.58-63.28,48.58s-63.27-12.05-63.27-48.58V95.93c0-1.56,1.27-2.83,2.83-2.83h20.04c1.56,0,2.83,1.27,2.83,2.83v211.6c0,26.3,13.8,41.28,37.58,41.28s37.58-14.98,37.58-41.28V95.93c0-1.56,1.27-2.83,2.83-2.83h20.04Z"/>
  <text class="cls-9" transform="translate(532.76 449.21)"><tspan class="cls-8" x="0" y="0">Y</tspan><tspan x="26.68" y="0">OUR </tspan><tspan class="cls-7" x="148.2" y="0">F</tspan><tspan class="cls-1" x="171.85" y="0">ASHION LIMELIGHT</tspan></text>
</svg>