<?xml version="1.0" encoding="UTF-8"?>
<svg id="Layer_1" data-name="Layer 1" xmlns="http://www.w3.org/2000/svg" viewBox="0 0 1984.76 2005.35">
  <defs>
    <style>
      .cls-1 {
        fill: #fff;
        stroke: #fff;
        stroke-miterlimit: 10;
        stroke-width: 10px;
      }
    </style>
  </defs>
  <path class="cls-1" d="M1730.43,1171.24v227.5c-13.97,6.99-27.05,14.19-39.89,23.11-25.43,17.66-49.49,37.18-75.19,54.81-111.74,76.62-225.74,150.13-337.92,226.08l-5.38,1.58c-1.25-.2-1.59-4.39-1.67-5.53-4.87-71.76,14.67-179.26-19.78-242.22-35.97-65.74-120.3-83.88-181.89-41.55-39.94,27.45-52.75,77.53-55.33,123.67l-.14,339.86-175.32,119.68-1.49-2.48-.05-496.06c6.98-141.77,77.03-267.82,223.82-298.18,42.93-8.88,80.59-6.08,123.72-2.26,84.23,7.46,153.33,56.41,196.93,127.07,11.86,19.22,21.19,39.67,31.15,59.9,19.95-12.83,39.05-26.95,58.71-40.21,78.62-53.03,158.39-105.57,236.04-159.96,7.52-5.27,14.35-14.46,23.69-14.81Z"/>
  <path class="cls-1" d="M1375.88,277.87l272.09,405.91,34.42,50.58c-6.17,3.38-13.18.57-19.47.47-44.82-.72-91.7-1.11-136.09,0-91.43,2.28-161.81,40.45-155.49,142.59,4.24,68.58,54.2,105.65,118.66,114.34,120.63,4.76,242.02.9,362.94,2.06l4.01.99,118.43,176.06c-80.51.11-161.05-.08-241.57-.07-88.99.02-180.43,1.83-269.81-2.04-96.41-8.72-190.25-44.34-245.65-127.35-56.8-85.11-60.09-222.07-13.16-312.21,33.01-63.41,91.48-108.36,158.05-132.44l.2-2.35-215.07-316.53h227.5Z"/>
  <path class="cls-1" d="M255.02,608.88l405.91-272.09,50.58-34.42c3.38,6.17.57,13.18.47,19.47-.72,44.82-1.11,91.7,0,136.09,2.28,91.43,40.45,161.81,142.59,155.49,68.58-4.24,105.65-54.2,114.34-118.66,4.76-120.63.9-242.02,2.06-362.94l.99-4.01,176.06-118.43c.11,80.51-.08,161.05-.07,241.57.02,88.99,1.83,180.43-2.04,269.81-8.72,96.41-44.34,190.25-127.35,245.65-85.11,56.8-222.07,60.09-312.21,13.16-63.41-33.01-108.36-91.48-132.44-158.05l-2.35-.2-316.53,215.07v-227.5Z"/>
  <path class="cls-1" d="M608.88,1729.74l-272.09-405.91-34.42-50.58c6.17-3.38,13.18-.57,19.47-.47,44.82.72,91.7,1.11,136.09,0,91.43-2.28,161.81-40.45,155.49-142.59-4.24-68.58-54.2-105.65-118.66-114.34-120.63-4.76-242.02-.9-362.94-2.06l-4.01-.99L9.38,836.75c80.51-.11,161.05.08,241.57.07,88.99-.02,180.43-1.83,269.81,2.04,96.41,8.72,190.25,44.34,245.65,127.35,56.8,85.11,60.09,222.07,13.16,312.21-33.01,63.41-91.48,108.36-158.05,132.44l-.2,2.35,215.07,316.53h-227.5Z"/>
</svg>