<?xml version="1.0" encoding="UTF-8"?>
<svg id="Layer_1" data-name="Layer 1" xmlns="http://www.w3.org/2000/svg" viewBox="0 0 3654.02 4661.58">
  <defs>
    <style>
      .cls-1 {
        letter-spacing: 0em;
      }

      .cls-2 {
        fill: #d9cbc2;
      }

      .cls-2, .cls-3, .cls-4, .cls-5 {
        stroke: #fff;
        stroke-miterlimit: 10;
        stroke-width: 10px;
      }

      .cls-6 {
        font-family: Calibri, Calibri;
        font-size: 244.47px;
      }

      .cls-6, .cls-7, .cls-3 {
        fill: #1a244f;
      }

      .cls-4 {
        fill: #3b517e;
      }

      .cls-8 {
        letter-spacing: -.06em;
      }

      .cls-9 {
        letter-spacing: -.03em;
      }

      .cls-5 {
        fill: #e0c48c;
      }
    </style>
  </defs>
  <path class="cls-2" d="M3026.89,1898.26v369.86c-22.71,11.37-43.98,23.07-64.85,37.57-41.34,28.71-80.46,60.44-122.25,89.1-181.65,124.57-367,244.08-549.37,367.55l-8.75,2.56c-2.03-.32-2.58-7.14-2.71-8.98-7.91-116.67,23.85-291.42-32.16-393.78-58.48-106.88-195.58-136.37-295.71-67.55-64.94,44.63-85.75,126.04-89.95,201.06l-.23,552.52-285.03,194.57-2.42-4.03-.08-806.47c11.35-230.49,125.23-435.4,363.87-484.76,69.79-14.44,131.02-9.89,201.13-3.68,136.94,12.13,249.27,91.72,320.15,206.59,19.28,31.24,34.46,64.5,50.65,97.38,32.44-20.85,63.49-43.81,95.45-65.36,127.82-86.22,257.5-171.63,383.73-260.06,12.22-8.56,23.33-23.51,38.51-24.09Z"/>
  <path class="cls-5" d="M2450.48,445.88l442.35,659.91,55.96,82.23c-10.03,5.5-21.43.93-31.65.76-72.87-1.18-149.08-1.81-221.25-.01-148.64,3.71-263.06,65.76-252.79,231.81,6.89,111.49,88.11,171.76,192.92,185.88,196.12,7.73,393.47,1.47,590.04,3.35l6.52,1.61,192.54,286.23c-130.89.18-261.82-.14-392.73-.11-144.67.03-293.33,2.97-438.64-3.32-156.74-14.17-309.3-72.08-399.36-207.04-92.33-138.37-97.68-361.03-21.39-507.58,53.67-103.09,148.72-176.17,256.96-215.31l.33-3.82-349.65-514.59h369.86Z"/>
  <path class="cls-3" d="M628.25,984.01l659.91-442.35,82.23-55.96c5.5,10.03.93,21.43.76,31.65-1.18,72.87-1.81,149.08-.01,221.25,3.71,148.64,65.76,263.06,231.81,252.79,111.49-6.89,171.76-88.11,185.88-192.92,7.73-196.12,1.47-393.47,3.35-590.04l1.61-6.52L2080.02,9.38c.18,130.89-.14,261.82-.11,392.73.03,144.67,2.97,293.33-3.32,438.64-14.17,156.74-72.08,309.3-207.04,399.36-138.37,92.33-361.03,97.68-507.58,21.39-103.09-53.67-176.17-148.72-215.31-256.96l-3.82-.33-514.59,349.65v-369.86Z"/>
  <path class="cls-4" d="M1203.54,2806.25l-442.35-659.91-55.96-82.23c10.03-5.5,21.43-.93,31.65-.76,72.87,1.18,149.08,1.81,221.25.01,148.64-3.71,263.06-65.76,252.79-231.81-6.89-111.49-88.11-171.76-192.92-185.88-196.12-7.73-393.47-1.47-590.04-3.35l-6.52-1.61-192.54-286.23c130.89-.18,261.82.14,392.73.11,144.67-.03,293.33-2.97,438.64,3.32,156.74,14.17,309.3,72.08,399.36,207.04,92.33,138.37,97.68,361.03,21.39,507.58-53.67,103.09-148.72,176.17-256.96,215.31l-.33,3.82,349.65,514.59h-369.86Z"/>
  <g>
    <path class="cls-7" d="M255.84,4191.87l-73.97-136.08c-1.99-3.66-6.42-5.19-10.26-3.6-34.38,14.24-71.82,21.23-109.36,21.71-3.14,3.17-4.92,4.96-8.06,8.12v105.97c0,4.48-3.63,8.11-8.11,8.11H8.11c-4.48,0-8.11-3.63-8.11-8.11v-673.49c0-4.48,3.63-8.11,8.11-8.11h50.03c130.06,0,262.09,75.87,262.09,283.76,0,107.89-36.08,179.69-88.52,224.38-2.93,2.49-3.73,6.68-1.89,10.06l86.84,159.51c2.94,5.4-.97,11.98-7.12,11.98h-46.56c-2.97,0-5.7-1.62-7.12-4.23ZM67.98,4064.08c88.68,0,193.12-77.84,193.12-273.91s-104.44-274.89-193.12-274.89h-5.69c-4.48,0-8.11,3.63-8.11,8.11v532.59c0,4.48,3.63,8.11,8.11,8.11h5.69Z"/>
    <path class="cls-7" d="M499.03,3514.54v673.44c0,4.49-3.64,8.13-8.13,8.13h-36.95c-4.49,0-8.13-3.64-8.13-8.13v-673.44c0-4.49,3.64-8.13,8.13-8.13h36.95c4.49,0,8.13,3.64,8.13,8.13Z"/>
    <path class="cls-7" d="M968.54,4196.11c64.5,0,129.92-15.52,184.82-47.45,2.81-1.63,6.33.37,6.33,3.62h0c0,1.52-.81,2.92-2.13,3.66-52.78,29.8-116.1,47.07-189.02,47.07-220.7,0-355.69-156.66-355.69-351.75s134.98-351.75,355.69-351.75c72.91,0,136.23,17.27,189.02,47.07,1.32.74,2.13,2.15,2.13,3.66h0c0,3.25-3.52,5.25-6.33,3.62-54.9-31.93-120.32-47.45-184.82-47.45-181.29,0-293.62,154.69-293.62,344.85s112.32,344.85,293.62,344.85ZM1479.9,3510.61v681.3c0,2.32-1.88,4.2-4.2,4.2h-45.79c-2.32,0-4.2-1.88-4.2-4.2v-331.52c0-2.32-1.88-4.2-4.2-4.2h-361.08c-2.32,0-4.2,1.88-4.2,4.2v222.15c0,2.32-1.88,4.2-4.2,4.2h-45.79c-2.32,0-4.2-1.88-4.2-4.2v-441.87c0-2.32,1.88-4.2,4.2-4.2h45.79c2.32,0,4.2,1.88,4.2,4.2v201.46c0,2.32,1.88,4.2,4.2,4.2h361.08c2.32,0,4.2-1.88,4.2-4.2v-331.52c0-2.32,1.88-4.2,4.2-4.2h45.79c2.32,0,4.2,1.88,4.2,4.2Z"/>
    <path class="cls-7" d="M2422.93,4196.11c1.64,0,2.97-1.33,2.97-2.97l.03-681.61c0-3.01-2.44-5.44-5.44-5.44h-42.32c-3.01,0-5.44,2.44-5.44,5.44v546.03c0,5.79-7.85,7.58-10.35,2.35l-264.05-550.73c-.91-1.89-2.81-3.09-4.91-3.09h0c-3.01,0-5.44,2.44-5.44,5.44v678.82c0,3.01,2.44,5.44,5.44,5.44h42.32c3.01,0,5.44-2.44,5.44-5.44v-536.85c0-5.8,8.23-6.62,10.72-1.38l259.47,542.41c.46.97,1.44,1.58,2.51,1.58h9.06Z"/>
    <path class="cls-7" d="M2608.81,3851.26c0,190.16,113.31,344.85,293.62,344.85,65.73,0,130.54-15.66,186.42-47.87,2.54-1.47,5.71.37,5.71,3.31v.95c0,1.38-.74,2.65-1.93,3.33-52.82,29.87-116.22,47.18-190.2,47.18-220.7,0-355.69-157.65-355.69-351.75s134.98-351.75,355.69-351.75c74,0,137.41,16.36,190.24,47.17,1.17.68,1.89,1.95,1.89,3.31h0c0,2.94-3.18,4.77-5.72,3.3-55.87-32.14-120.68-46.88-186.41-46.88-180.31,0-293.62,153.71-293.62,344.85Z"/>
    <path class="cls-7" d="M3564.9,4191.18h0c0,2.72-3.1,4.93-6.92,4.93h-333.36c-3.82,0-6.92-2.21-6.92-4.93v-679.85c0-2.72,3.1-4.93,6.92-4.93h60.86c3.82,0,6.92,2.21,6.92,4.93v669.99c0,2.72,3.1,4.93,6.92,4.93h258.66c3.82,0,6.92,2.21,6.92,4.93ZM3654.02,4131.22h0c0,2.72-2.21,4.93-4.93,4.93h-273.91c-2.72,0-4.93-2.21-4.93-4.93v-570.48c0-2.72,2.21-4.93,4.93-4.93h255.19c2.72,0,4.93,2.21,4.93,4.93h0c0,2.72-2.21,4.93-4.93,4.93h-201.98c-2.72,0-4.93,2.21-4.93,4.93v265.04c0,2.72,2.21,4.93,4.93,4.93h182.28c2.72,0,4.93,2.21,4.93,4.93h0c0,2.72-2.21,4.93-4.93,4.93h-182.28c-2.72,0-4.93,2.21-4.93,4.93v266.03c0,2.72,2.21,4.93,4.93,4.93h220.7c2.72,0,4.93,2.21,4.93,4.93Z"/>
    <path class="cls-7" d="M1954.42,3499.51c4.21,0,7.62,3.41,7.62,7.62v557.93c0,98.53-68.01,131.04-170.67,131.04s-170.66-32.51-170.66-131.04v-557.93c0-4.21,3.41-7.62,7.62-7.62h54.05c4.21,0,7.62,3.41,7.62,7.62v570.74c0,70.94,37.21,111.34,101.37,111.34s101.37-40.4,101.37-111.34v-570.74c0-4.21,3.41-7.62,7.62-7.62h54.05Z"/>
  </g>
  <text class="cls-6" transform="translate(505.98 4586.49)"><tspan class="cls-9" x="0" y="0">Y</tspan><tspan class="cls-1" x="111.25" y="0">OUR </tspan><tspan class="cls-8" x="617.99" y="0">F</tspan><tspan x="716.59" y="0">ASHION LIMELIGHT</tspan></text>
</svg>